<svg width="23" height="25" viewBox="0 0 23 25" fill="none" xmlns="http://www.w3.org/2000/svg">
<g clip-path="url(#clip0)" filter="url(#filter0_d)">
<path d="M18.393 8.79292C17.7921 11.0355 15.5607 13.2541 12.6886 14.7755C11.5432 15.3831 10.3334 15.8604 9.08167 16.1984C5.95472 13.0087 3.8775 8.27573 4.72056 5.1294C4.93393 4.3321 5.40847 3.62938 6.0683 3.13357C6.72813 2.63777 7.53515 2.37752 8.36033 2.39444C9.1855 2.41136 9.98118 2.70447 10.6201 3.2269C11.2591 3.74934 11.7044 4.47093 11.8849 5.2763C11.9058 5.36528 11.9227 5.45558 11.9356 5.54722C12.0936 5.34844 12.2711 5.16611 12.4657 5.00301C13.0677 4.50114 13.814 4.204 14.5962 4.15465C15.3785 4.1053 16.1561 4.3063 16.8165 4.72853C17.4768 5.15076 17.9856 5.77229 18.2691 6.50305C18.5525 7.2338 18.5959 8.03583 18.393 8.79292Z" fill="#DA364C"/>
<path d="M17.2132 9.7299C16.5972 11.5737 14.9055 13.3827 12.6902 14.7763C11.5448 15.3839 10.3349 15.8612 9.08322 16.1992C5.95627 13.0095 3.87905 8.27652 4.72211 5.13019C4.91761 4.39414 5.33723 3.73714 5.92281 3.25022C6.63732 2.98633 7.41615 2.95086 8.1517 3.1487C9.61898 3.54186 10.7447 5.00958 10.9512 6.4213C11.219 6.06801 11.5541 5.77121 11.9372 5.54801C11.9579 5.63755 11.9241 5.45693 11.9372 5.54801L11.942 5.54198C12.2581 5.14701 12.7121 4.88653 13.2126 4.81305C13.7199 4.73994 14.2369 4.77346 14.7305 4.91148C16.8007 5.48604 17.894 7.69204 17.2132 9.7299Z" fill="#EF5261"/>
</g>
<defs>
<filter id="filter0_d" x="-3" y="0" width="27.5959" height="27.5959" filterUnits="userSpaceOnUse" color-interpolation-filters="sRGB">
<feFlood flood-opacity="0" result="BackgroundImageFix"/>
<feColorMatrix in="SourceAlpha" type="matrix" values="0 0 0 0 0 0 0 0 0 0 0 0 0 0 0 0 0 0 127 0"/>
<feOffset dy="4"/>
<feGaussianBlur stdDeviation="2"/>
<feColorMatrix type="matrix" values="0 0 0 0 0 0 0 0 0 0 0 0 0 0 0 0 0 0 0.25 0"/>
<feBlend mode="normal" in2="BackgroundImageFix" result="effect1_dropShadow"/>
<feBlend mode="normal" in="SourceGraphic" in2="effect1_dropShadow" result="shape"/>
</filter>
<clipPath id="clip0">
<rect width="16" height="16" fill="white" transform="translate(5.14062) rotate(15)"/>
</clipPath>
</defs>
</svg>
