<svg display="none" xmlns="http://www.w3.org/2000/svg" xmlns:xlink="http://www.w3.org/1999/xlink">
  <symbol id="icecream" viewBox="0 0 57 73">
    <path
      d="M15.332 36.5996L35.5374 24.7391C35.5374 24.7391 48.301 69.2846 46.1553 65.9688C44.0096 62.653 15.332 36.5996 15.332 36.5996Z"
      fill="#E9B84C"/>
    <path
      d="M34.5662 23.4577C33.7159 22.2088 32.6212 21.1452 31.3483 20.3314C30.0753 19.5176 28.6506 18.9704 27.1601 18.7228C25.6697 18.4753 24.1445 18.5326 22.6768 18.8912C21.2091 19.2498 19.8294 19.9024 18.6211 20.8094C16.5313 22.2477 14.9778 24.3386 14.2041 26.7546C13.4303 29.1705 13.4799 31.775 14.3453 34.1597C14.0617 36.4904 16.1877 37.7675 18.2861 37.5419C18.4371 37.6889 18.5971 37.8264 18.7651 37.9537C19.2865 38.5864 20.0178 39.0108 20.8259 39.1498C21.6339 39.2887 22.465 39.1329 23.1678 38.7107C23.7257 38.3605 24.1802 37.868 24.4846 37.2839C24.7891 36.6998 24.9325 36.0451 24.9 35.3872C24.9444 35.1514 24.9627 34.9115 24.9546 34.6717C24.9266 33.9829 24.7143 33.3142 24.34 32.7353L24.4318 32.6814C24.7156 33.0975 25.097 33.4378 25.5426 33.6727C25.9882 33.9075 26.4845 34.0297 26.9882 34.0286C27.5419 34.0271 28.0854 33.8786 28.5629 33.5983C29.0405 33.3179 29.435 32.9159 29.7062 32.4331C29.9353 31.9361 30.118 31.4189 30.2518 30.8883C30.3379 30.4932 30.3528 30.0858 30.2957 29.6855L30.8464 29.3622C31.179 29.6865 31.5929 29.9151 32.0444 30.0242C32.4959 30.1333 32.9685 30.1188 33.4125 29.9822C33.7253 29.8917 34.0169 29.7399 34.2705 29.5356C34.5073 29.4697 34.7341 29.3718 34.9444 29.2444C35.4811 28.926 35.9025 28.445 36.1475 27.871C36.3926 27.2971 36.4486 26.6601 36.3075 26.0522L36.0625 25.2467C35.9466 24.863 35.7543 24.5067 35.4972 24.1993C35.24 23.8918 34.9234 23.6395 34.5662 23.4577Z"
      fill="#DA8588"/>
    <path
      d="M15.6643 7.7175C13.7778 8.22669 12.0212 9.13159 10.5114 10.3721C9.70623 10.9897 8.99867 11.725 8.41247 12.5534C7.58206 13.6379 6.96166 14.8681 6.58325 16.1806C6.28312 17.2942 6.21625 18.4577 6.38681 19.5984C6.55738 20.739 6.96171 21.8322 7.57447 22.8093C8.18723 23.7863 8.9952 24.6263 9.94775 25.2766C10.9003 25.9268 11.9769 26.3733 13.1101 26.588C14.6109 26.8811 16.156 26.8615 17.6489 26.5307C19.1418 26.1999 20.5506 25.5648 21.7871 24.6652C25.6065 22.4232 28.5574 18.0711 27.4802 13.7294C26.2094 8.63746 20.5794 6.43658 15.6643 7.7175Z"
      fill="#CCE6F1"/>
    <path
      d="M10.5241 6.5105C10.0547 6.80839 9.6833 7.23784 9.45627 7.74533C9.22923 8.25281 9.15656 8.81588 9.24731 9.36438C9.33807 9.91287 9.58824 10.4225 9.96663 10.8298C10.345 11.2371 10.8349 11.5241 11.3752 11.6549C11.9156 11.7858 12.4825 11.7547 13.0053 11.5656C13.5281 11.3765 13.9837 11.0377 14.3153 10.5915C14.6469 10.1452 14.8398 9.61126 14.8701 9.05613C14.9003 8.501 14.7665 7.94925 14.4854 7.46963C14.0829 6.82209 13.4421 6.35864 12.701 6.17922C11.96 5.99981 11.1782 6.11878 10.5241 6.5105Z"
      fill="#C3555D"/>
    <path
      d="M8.7599 20.5326C9.80944 20.7271 10.8696 20.8591 11.9348 20.9282C12.8366 21.0253 13.9595 21.3534 14.6699 20.6231C14.785 20.5066 14.8595 20.3562 14.8823 20.194C14.9051 20.0319 14.875 19.8667 14.7965 19.723C14.1937 18.8902 13.1613 19.0881 12.1942 19.0577C11.1154 19.0044 10.0343 19.0208 8.95754 19.1066C8.17173 19.2072 7.89135 20.3305 8.75283 20.5367L8.7599 20.5326Z"
      fill="#8BC9E0"/>
    <path
      d="M19.2892 11.257C18.995 12.0657 18.7822 12.8836 18.5581 13.6986C18.3341 14.5135 17.9406 15.428 18.2225 16.1832C18.2738 16.346 18.3663 16.4927 18.491 16.6093C18.6157 16.7258 18.7683 16.8081 18.9342 16.8482C19.1 16.8884 19.2735 16.885 19.4376 16.8384C19.6018 16.7919 19.7511 16.7037 19.8712 16.5824C20.5135 15.9301 20.5414 14.9265 20.6787 14.077C20.8161 13.2275 20.9875 12.339 21.0422 11.462C21.1325 10.4029 19.5926 10.367 19.268 11.2695L19.2892 11.257Z"
      fill="#8BC9E0"/>
    <path
      d="M12.7023 16.2709C13.5161 15.8786 14.3507 15.5215 15.1273 15.0657C15.337 14.9426 15.4893 14.7412 15.5505 14.5059C15.6117 14.2706 15.577 14.0206 15.4539 13.8108C15.3308 13.6011 15.1294 13.4489 14.8941 13.3877C14.6588 13.3264 14.4088 13.3612 14.199 13.4843C13.4225 13.9401 12.7039 14.4948 11.9605 15.0072C11.8141 15.1153 11.7129 15.2738 11.6764 15.452C11.6399 15.6303 11.6707 15.8158 11.7628 15.9727C11.855 16.1297 12.0019 16.247 12.1753 16.302C12.3488 16.3571 12.5365 16.346 12.7023 16.2709Z"
      fill="#8BC9E0"/>
    <path
      d="M22.9658 10.6928C23.2367 11.2837 23.5035 11.8675 23.8026 12.4418C24.011 13.0131 24.39 13.5064 24.8883 13.8549C24.997 13.9066 25.1167 13.931 25.2369 13.9258C25.3571 13.9206 25.4742 13.886 25.578 13.8251C25.6818 13.7641 25.7691 13.6787 25.8322 13.5763C25.8954 13.4739 25.9325 13.3575 25.9403 13.2374C25.871 12.6345 25.626 12.0653 25.2358 11.6006C24.9084 11.0429 24.5004 10.5419 24.1165 10.0173C24.0177 9.88495 23.8735 9.79366 23.7116 9.76094C23.5496 9.72822 23.3813 9.75638 23.2388 9.84002C23.0963 9.92365 22.9897 10.0569 22.9393 10.2142C22.8889 10.3716 22.8984 10.542 22.9658 10.6928Z"
      fill="#8BC9E0"/>
    <path
      d="M17.9136 8.70389C18.7984 8.45429 19.7238 8.38208 20.6366 8.4914C21.4517 8.55399 21.6443 7.21642 20.8355 7.08368C19.7303 6.93131 18.6046 7.09221 17.5863 7.54806C16.88 7.84874 17.1094 8.96713 17.8924 8.71632L17.9136 8.70389Z"
      fill="#8BC9E0"/>
    <path
      d="M16.6332 25.0034C17.8638 24.6071 19.0649 24.1241 20.2273 23.5581C21.2442 23.0751 20.553 21.364 19.4947 21.7764C18.2798 22.2226 17.0992 22.757 15.9622 23.3753C15.7668 23.4775 15.6167 23.6491 15.5413 23.8564C15.4659 24.0636 15.4707 24.2916 15.5547 24.4955C15.6387 24.6994 15.7959 24.8646 15.9955 24.9585C16.195 25.0525 16.4224 25.0685 16.6332 25.0034Z"
      fill="#8BC9E0"/>
    <path
      d="M26.0714 19.673C25.554 18.5328 24.9551 17.4314 24.2793 16.3774C23.7323 15.4455 22.0384 16.3923 22.5567 17.3885C23.1256 18.5033 23.774 19.5756 24.4971 20.5971C24.6413 20.7549 24.8353 20.8583 25.0467 20.8902C25.258 20.9221 25.4739 20.8804 25.6583 20.7722C25.8426 20.664 25.9842 20.4958 26.0594 20.2957C26.1346 20.0956 26.1388 19.8758 26.0714 19.673Z"
      fill="#8BC9E0"/>
    <path
      d="M9.74457 14.8852C9.70931 14.1071 9.4848 13.3493 9.09051 12.6776C8.69622 12.0059 8.14406 11.4405 7.48188 11.0305C6.74302 10.6288 5.72903 11.5373 6.24136 12.2807C6.62231 12.8165 7.12618 13.2706 7.54949 13.7816C7.9457 14.2958 8.36836 14.7891 8.81573 15.2595C8.89824 15.3315 8.99942 15.3788 9.1076 15.3958C9.21579 15.4128 9.32656 15.3989 9.4272 15.3557C9.52783 15.3125 9.61421 15.2418 9.67639 15.1516C9.73857 15.0615 9.77401 14.9556 9.77864 14.8462L9.74457 14.8852Z"
      fill="#8BC9E0"/>
    <path
      d="M6.67221 23.3144C6.68806 24.0531 6.98076 24.7588 7.49231 25.2918C8.00386 25.8249 8.69695 26.1463 9.43429 26.1925C10.4262 26.2653 10.6094 24.7339 9.67782 24.5213C9.27845 24.4626 8.89969 24.3064 8.57507 24.0665C8.25045 23.8266 7.98997 23.5103 7.81669 23.1457C7.60718 22.5948 6.64671 22.608 6.67221 23.3144Z"
      fill="#8BC9E0"/>
    <path
      d="M17.4075 34.943C17.7528 34.6994 18.1451 34.5306 18.5593 34.4472C18.9828 34.36 19.3849 34.4467 19.8037 34.4002C20.4405 34.3207 20.8676 33.415 20.1673 33.0952C19.0197 32.5633 17.566 33.2078 16.6932 34.0333C16.5894 34.1332 16.5263 34.2681 16.5163 34.4118C16.5063 34.5555 16.5501 34.6978 16.639 34.8111C16.728 34.9244 16.8559 35.0006 16.9979 35.025C17.1398 35.0494 17.2858 35.0201 17.4075 34.943Z"
      fill="#8BC9E0"/>
    <path
      d="M24.9336 29.4436C26.402 28.4214 27.4781 26.9292 27.9844 25.2132C28.3113 24.0721 26.6593 23.7318 26.2237 24.7849C25.7063 26.0971 25.0032 27.3281 24.1359 28.4405C23.7166 28.9714 24.2537 29.9186 24.9336 29.4436Z"
      fill="#8BC9E0"/>
    <path
      d="M19.4126 27.4625C19.7421 28.196 20.1087 28.9123 20.5109 29.6086C20.6394 29.7343 20.8056 29.8142 20.984 29.8361C21.1624 29.858 21.343 29.8205 21.4979 29.7295C21.6529 29.6386 21.7737 29.4991 21.8415 29.3327C21.9094 29.1663 21.9207 28.9822 21.8735 28.8088C21.4616 28.1182 21.0149 27.4489 20.5351 26.8036C20.4386 26.6747 20.298 26.5859 20.1401 26.5541C19.9823 26.5223 19.8182 26.5498 19.6793 26.6313C19.5404 26.7129 19.4365 26.8427 19.3873 26.996C19.3381 27.1494 19.3471 27.3154 19.4126 27.4625Z"
      fill="#8BC9E0"/>
    <path
      d="M11.7732 29.7929C12.1067 30.4078 12.6584 30.8757 13.3196 31.1042C13.9808 31.3327 14.7036 31.3054 15.3457 31.0277C15.5511 30.9723 15.7268 30.8392 15.8357 30.6566C15.9447 30.4739 15.9783 30.2561 15.9294 30.0491C15.8665 29.851 15.7306 29.6843 15.5494 29.5827C15.3681 29.4811 15.155 29.4522 14.9532 29.502C14.5828 29.6493 14.1766 29.6818 13.7874 29.5955C13.3981 29.5091 13.0439 29.3078 12.7704 29.0176C12.2363 28.4958 11.501 29.1837 11.7661 29.797L11.7732 29.7929Z"
      fill="#8BC9E0"/>
    <path
      d="M32.7465 22.3606C32.6061 23.559 32.3218 24.7362 31.8999 25.8667C31.6135 26.7372 32.955 27.2598 33.3953 26.4413C34.0211 25.1689 34.2812 23.7477 34.1466 22.3361C34.1253 22.1635 34.0408 22.0049 33.9096 21.8909C33.7783 21.7768 33.6094 21.7154 33.4356 21.7184C33.2617 21.7215 33.0951 21.7888 32.9679 21.9073C32.8407 22.0259 32.7618 22.1874 32.7465 22.3606Z"
      fill="#8BC9E0"/>
    <path
      d="M29.2214 20.9656C29.9429 20.8872 30.6225 20.5877 31.1672 20.1082C31.4621 19.8947 31.7084 19.6209 31.8895 19.3051C32.0707 18.9893 32.1827 18.6386 32.2182 18.2762C32.2102 18.0965 32.1499 17.923 32.0448 17.777C31.9397 17.6309 31.7943 17.5187 31.6264 17.4541C31.4585 17.3895 31.2754 17.3752 31.0995 17.413C30.9236 17.4509 30.7626 17.5392 30.6361 17.6671C30.2975 17.9798 30.1963 18.4379 29.8772 18.7676C29.5673 19.0569 29.2092 19.2896 28.819 19.4552C28.6713 19.5483 28.5573 19.6862 28.4935 19.8487C28.4298 20.0111 28.4197 20.1898 28.4646 20.3584C28.5095 20.5271 28.6072 20.677 28.7434 20.7862C28.8795 20.8954 29.047 20.9583 29.2214 20.9656Z"
      fill="#8BC9E0"/>

  </symbol>
  <symbol id="cake" viewBox="0 0 46 45">
    <path
      d="M35.036 26.9667C35.6094 26.42 36.0677 25.7642 36.3838 25.0377C36.7 24.3113 36.8675 23.5289 36.8767 22.7367C36.9164 22.0535 36.7024 21.3797 36.2758 20.8447C36.1379 18.9507 35.7242 17.0871 35.0478 15.3127C34.082 12.586 31.1087 9.54388 32.1372 6.60968C32.757 4.83205 30.4886 4.10556 29.3345 4.99813C29.1161 5.16829 28.9107 5.35464 28.7202 5.55561C28.4058 5.34609 28.0486 5.20934 27.6746 5.15534C27.3007 5.10133 26.9194 5.13144 26.5585 5.24345C24.3393 5.93965 21.5118 7.24442 19.7219 9.14374C18.5734 9.18258 17.4377 9.39879 16.3552 9.78471C14.1549 10.5948 11.7456 12.2589 11.44 14.7834C11.1797 17.1025 12.9046 19.0632 14.9978 19.7972C16.5438 20.3401 18.1792 20.254 19.7118 20.9762C20.9517 21.629 22.1245 22.4021 23.2131 23.2844C23.9518 23.8262 24.7186 24.3288 25.5101 24.7901C25.8661 25.402 26.3499 25.9298 26.9287 26.3376C27.5074 26.7453 28.1673 27.0233 28.8633 27.1525C29.4728 27.2808 30.0994 27.3066 30.7173 27.2289C31.3396 27.7332 32.1282 27.986 32.9276 27.9374C33.7271 27.8889 34.4793 27.5425 35.036 26.9667Z"
      fill="#CCE6F1"/>
    <path
      d="M25.4255 12.5665C25.7742 13.3946 26.065 14.2459 26.2958 15.1143C26.4008 15.5529 26.4916 16.5614 27.2079 16.3429C28.4599 15.9711 26.7571 12.765 26.3513 12.1567C26.0512 11.7449 25.2259 11.964 25.4388 12.5354L25.4255 12.5665Z"
      fill="#8BC9E0"/>
    <path
      d="M32.9928 9.8605C32.4668 9.78357 31.9336 9.76682 31.4038 9.81059C30.8734 9.78897 30.3465 9.90507 29.8743 10.1476C29.7712 10.2118 29.6915 10.3073 29.6467 10.4202C29.602 10.533 29.5946 10.6573 29.6257 10.7746C29.6568 10.892 29.7247 10.9962 29.8195 11.0722C29.9142 11.1481 30.0308 11.1916 30.1521 11.1963C30.5935 11.154 31.0294 11.067 31.4532 10.9366C31.9143 10.8733 32.3813 10.8656 32.8442 10.9137C33.4334 10.9479 33.5799 9.95844 33.0138 9.85622L32.9928 9.8605Z"
      fill="#8BC9E0"/>
    <path
      d="M24.3768 3.1805C24.7444 4.04323 25.0573 4.92822 25.3138 5.83024C25.5377 6.43428 26.5759 6.43552 26.5307 5.68153C26.3867 4.58161 25.9522 3.53992 25.272 2.66366C25.196 2.56104 25.0848 2.48997 24.9598 2.464C24.8347 2.43802 24.7045 2.45896 24.5939 2.52282C24.4833 2.58668 24.4 2.689 24.36 2.81028C24.32 2.93157 24.3259 3.06334 24.3768 3.1805Z"
      fill="#8BC9E0"/>
    <path
      d="M31.5287 18.054C31.9028 18.3372 32.3303 18.5507 32.7387 18.7986C33.147 19.0465 33.4679 19.3995 33.8587 19.6575C34.7252 20.226 35.4631 19.0043 34.8725 18.2921C34.0804 17.4432 33.0037 16.9152 31.8474 16.809C31.1215 16.7678 31.0494 17.6832 31.5185 18.0364L31.5287 18.054Z"
      fill="#8BC9E0"/>
    <path
      d="M18.5915 12.0513C19.1827 13.0752 19.63 14.1744 20.1685 15.2287C20.5989 16.0958 22.1247 15.4957 21.7636 14.573C21.2809 13.4058 20.6344 12.3133 19.8436 11.3284C19.2924 10.6169 18.1235 11.2137 18.5915 12.0513Z"
      fill="#8BC9E0"/>
    <path
      d="M22.3197 8.30633C21.7863 8.02561 21.2953 7.67091 20.8611 7.25276C20.4902 6.78062 20.022 6.39375 19.4885 6.11837C19.3599 6.08542 19.225 6.08625 19.0969 6.12078C18.9687 6.1553 18.8517 6.22236 18.7571 6.31543C18.6625 6.40851 18.5935 6.52445 18.5569 6.65201C18.5203 6.77958 18.5173 6.91443 18.5482 7.04351C18.8066 7.71244 19.3087 8.25871 19.9536 8.57245C20.5458 8.93143 21.1823 9.21171 21.847 9.40621C21.9891 9.43893 22.1383 9.42004 22.2678 9.35291C22.3973 9.28577 22.4988 9.17477 22.554 9.03974C22.6092 8.90471 22.6146 8.75444 22.5692 8.6158C22.5238 8.47716 22.4306 8.35917 22.3062 8.28293L22.3197 8.30633Z"
      fill="#8BC9E0"/>
    <path
      d="M13.0253 11.3412C13.1917 12.3742 13.4289 13.3945 13.7352 14.395C13.7931 14.6171 13.9369 14.8071 14.1348 14.9233C14.3328 15.0394 14.5688 15.0721 14.7909 15.0142C15.013 14.9563 15.203 14.8126 15.3192 14.6146C15.4353 14.4166 15.468 14.1806 15.4101 13.9585C15.1166 12.9502 14.753 11.9637 14.3218 11.0061C14.2602 10.8546 14.1456 10.7306 13.9994 10.6571C13.8533 10.5837 13.6854 10.5657 13.527 10.6067C13.3686 10.6476 13.2305 10.7446 13.1382 10.8797C13.0459 11.0148 13.0058 11.1788 13.0253 11.3412Z"
      fill="#8BC9E0"/>
    <path
      d="M23.3931 18.6091C24.16 18.6771 24.9176 18.8254 25.6535 19.0515C25.8415 19.0969 26.0398 19.0671 26.2063 18.9686C26.3728 18.87 26.4942 18.7104 26.5449 18.5237C26.5956 18.337 26.5714 18.138 26.4776 17.9688C26.3839 17.7996 26.2278 17.6736 26.0426 17.6177C25.1767 17.3898 24.2785 17.3096 23.386 17.3806C23.2222 17.38 23.0648 17.4445 22.9486 17.5599C22.8323 17.6753 22.7667 17.8322 22.7661 17.996C22.7655 18.1598 22.83 18.3171 22.9454 18.4333C23.0607 18.5496 23.2176 18.6152 23.3814 18.6158L23.3931 18.6091Z"
      fill="#8BC9E0"/>
    <path
      d="M34.6274 22.6635C34.1564 22.4829 33.6812 22.2814 33.2029 22.1285C32.3268 21.8541 31.9226 23.2889 32.8237 23.5254C33.3186 23.6531 33.8109 23.7355 34.3108 23.8448C34.461 23.8687 34.6146 23.8361 34.7422 23.7534C34.8697 23.6706 34.962 23.5436 35.0014 23.3967C35.0407 23.2499 35.0243 23.0937 34.9552 22.9583C34.8861 22.8228 34.7693 22.7178 34.6274 22.6635Z"
      fill="#8BC9E0"/>
    <path
      d="M31.8518 12.3842C31.6184 12.4667 31.4049 12.5972 31.2251 12.7674C31.0453 12.9375 30.9032 13.1435 30.8079 13.372C30.7127 13.6005 30.6664 13.8464 30.6721 14.0939C30.6778 14.3414 30.7354 14.585 30.8411 14.8088C30.9047 14.9059 30.9973 14.9806 31.1057 15.0223C31.2141 15.0639 31.3328 15.0705 31.4451 15.041C31.5575 15.0115 31.6577 14.9475 31.7316 14.8579C31.8055 14.7684 31.8495 14.6579 31.8572 14.542C31.8405 14.2852 31.8597 14.0273 31.9141 13.7758C32.0063 13.5531 32.1412 13.3507 32.3112 13.1799C32.3819 13.1048 32.4265 13.009 32.4385 12.9065C32.4504 12.8041 32.429 12.7005 32.3774 12.6112C32.3259 12.5219 32.2469 12.4515 32.1522 12.4107C32.0575 12.3698 31.9522 12.3605 31.8518 12.3842Z"
      fill="#8BC9E0"/>
    <path
      d="M30.2214 6.35816C29.3762 6.24544 28.195 6.1317 27.5416 6.74299C27.4579 6.83226 27.4019 6.94377 27.3801 7.06413C27.3583 7.18449 27.3718 7.30857 27.4189 7.42147C27.4659 7.53437 27.5446 7.63128 27.6454 7.70055C27.7462 7.76982 27.8648 7.80851 27.9871 7.81196C28.3513 7.75972 28.7059 7.65483 29.0399 7.50057C29.3801 7.39008 29.7335 7.3251 30.0907 7.30734C30.6034 7.27657 30.7958 6.44778 30.2214 6.35816Z"
      fill="#8BC9E0"/>
    <path
      d="M25.2919 10.4535C25.7431 10.6404 26.1702 10.881 26.5638 11.1701C26.7115 11.2155 26.8702 11.2089 27.0136 11.1514C27.1569 11.0939 27.2763 10.9891 27.3517 10.8543C27.4272 10.7195 27.4541 10.563 27.4282 10.4107C27.4022 10.2584 27.3248 10.1197 27.209 10.0175C26.7267 9.68111 26.1893 9.43165 25.6211 9.28048C25.544 9.25887 25.4635 9.25264 25.3841 9.26214C25.3047 9.27165 25.2279 9.29671 25.1581 9.33589C25.0884 9.37507 25.0271 9.4276 24.9776 9.49048C24.9282 9.55337 24.8916 9.62538 24.87 9.7024C24.8484 9.77942 24.8422 9.85994 24.8517 9.93937C24.8612 10.0188 24.8862 10.0956 24.9254 10.1653C24.9646 10.2351 25.0171 10.2964 25.08 10.3458C25.1429 10.3953 25.2149 10.4318 25.2919 10.4535Z"
      fill="#8BC9E0"/>
    <path
      d="M17.3028 15.8446C17.4559 16.4572 17.7778 17.0146 18.2317 17.4536C18.3427 17.5423 18.4826 17.5868 18.6244 17.5784C18.7662 17.57 18.8999 17.5093 18.9996 17.4081C19.0993 17.3069 19.1579 17.1723 19.1642 17.0304C19.1704 16.8884 19.1238 16.7492 19.0334 16.6397C18.735 16.3273 18.4904 15.9677 18.3097 15.5753C18.2691 15.4481 18.1829 15.3404 18.0676 15.2729C17.9523 15.2055 17.8162 15.1832 17.6854 15.2102C17.5555 15.2466 17.4448 15.332 17.3767 15.4485C17.3085 15.565 17.2883 15.7033 17.3203 15.8344L17.3028 15.8446Z"
      fill="#8BC9E0"/>
    <path
      d="M10.4919 15.1278L9.31545 32.8448L23.8547 40.5835L37.2416 24.5853L31.9922 24.7218L29.6445 20.6554L24.2032 21.9324L22.2136 18.4862L18.2365 19.2456L16.2468 15.7994L12.9469 17.7046L10.4919 15.1278Z"
      fill="#DA8588"/>
    <path
      d="M16.2422 15.8037C16.2422 15.8037 11.423 35.2104 11.9777 34.2661L14.0736 35.3964L18.2318 19.2499L16.2422 15.8037Z"
      fill="#E09BA1"/>
    <path
      d="M22.2012 18.4785C22.2875 20.3712 15.0921 35.8918 15.0921 35.8918L17.1996 37.0154C17.3736 37.1411 24.5658 22.5741 24.1976 21.9364L22.2012 18.4785Z"
      fill="#E09BA1"/>
    <path
      d="M29.6445 20.6562C29.6445 20.6562 19.2743 38.1503 19.8371 38.4494L22.1119 39.6871L31.9689 24.7361L29.6445 20.6562Z"
      fill="#E09BA1"/>
    <path
      d="M12.9481 17.7056C13.1071 18.589 10.6833 33.578 10.6833 33.578L9.29391 32.82L10.4796 15.1054L12.9481 17.7056Z"
      fill="#E09BA1"/>

  </symbol>
  <symbol id="star" viewBox="0 0 20 21">
    <path
      d="M19.74 16.71L12.6 15.52L7.57001 20.72L6.5 13.57L0 10.39L6.48004 7.16L7.48999 0L12.56 5.16L19.69 3.90002L16.35 10.32L19.74 16.71Z"/>
  </symbol>
  <symbol id="gift" viewBox="0 0 78 64">
      <path d="M77.5212 63.166L67.23 25.2451L5.61133 41.9787L11.3656 63.166H77.5212Z" fill="#DA8588"/>
      <path d="M6.54102 45.3734L7.1913 47.778L28.2879 35.8232L18.8965 38.3715L6.54102 45.3734Z" fill="#EAC0C7"/>
      <path d="M8.02344 50.8478L8.67373 53.2524L49.6495 30.0234L40.2581 32.5717L8.02344 50.8478Z" fill="#EAC0C7"/>
      <path d="M61.6217 26.7726L9.50781 56.3153L10.1657 58.7199L67.497 26.2206L67.2323 25.2451L61.6217 26.7726Z" fill="#EAC0C7"/>
      <path d="M13.4611 63.1653L68.9777 31.6868L68.3274 29.2822L10.9961 61.7891L11.3666 63.1653H13.4611Z" fill="#EAC0C7"/>
      <path d="M24.5915 63.1651L70.4671 37.1536L69.8093 34.749L19.6992 63.1651H24.5915Z" fill="#EAC0C7"/>
      <path d="M35.7224 63.1652L71.9495 42.6282L71.2992 40.2236L30.8301 63.1652H35.7224Z" fill="#EAC0C7"/>
      <path d="M46.8608 63.165L73.4319 48.095L72.7816 45.6904L41.9609 63.165H46.8608Z" fill="#EAC0C7"/>
      <path d="M57.9899 63.1658L74.9201 53.5628L74.2623 51.1582L53.0977 63.1658H57.9899Z" fill="#EAC0C7"/>
      <path d="M69.1208 63.165L76.4025 59.0364L75.7522 56.6318L64.2285 63.165H69.1208Z" fill="#EAC0C7"/>
      <path d="M77.522 63.1658L77.2346 62.0996L75.3594 63.1658H77.522Z" fill="#EAC0C7"/>
      <path d="M68.2153 15.8101L0 34.3311L2.31808 42.8689L70.5334 24.348L68.2153 15.8101Z" fill="#E09BA1"/>
      <path d="M29.4305 34.5151L37.2339 63.1959H52.3569L43.2831 29.7287C44.0998 28.6852 44.8635 27.5586 45.6726 26.4546C47.8654 23.4678 50.3758 20.5415 52.304 17.3808C55.4496 12.2238 54.7917 3.90618 48.6745 1.12355C43.1168 -1.40956 36.7954 3.64908 34.4589 8.42039C32.3619 12.8505 31.2697 17.6893 31.2603 22.5906C27.7448 20.3352 24.1016 18.2851 20.3491 16.4507C16.0088 14.3637 10.383 15.1199 8.93123 20.4734C6.42081 29.7287 20.0996 34.0766 29.4305 34.5151ZM39.9409 14.8023C40.6044 13.18 41.5749 11.7011 42.7992 10.4469C43.4404 9.78867 44.2134 9.27333 45.0676 8.93457L45.2869 8.84383C45.2632 8.92532 45.2632 9.01189 45.2869 9.09338C45.7557 11.014 45.907 11.7777 44.7425 13.5849C43.578 15.3921 42.1035 17.2674 40.7651 19.0897C39.5251 20.7683 37.9825 22.5075 36.7197 24.3827L36.2585 24.5037C37.2001 21.1685 38.4323 17.9223 39.9409 14.8023ZM15.3056 21.6833C16.0239 20.0046 23.0939 23.4905 28.6516 26.5453L27.404 26.9007V27.0444C26.073 26.9419 24.7528 26.7295 23.4569 26.4092C22.1109 26.0614 14.2999 24.0878 15.3056 21.6833Z" fill="#8BC9E0"/>

  </symbol>
  <symbol id="cloud" viewBox="0 0 72 46">
      <path d="M56.3325 14.1299C55.0863 14.3005 53.876 14.6719 52.7486 15.2297C51.7154 12.2967 49.8358 9.73589 47.3475 7.87088C43.1182 4.83556 37.5743 4.0712 33.0552 6.89644C30.2587 8.75654 28.169 11.503 27.1221 14.6943C25.6141 14.003 23.9679 13.666 22.3096 13.7092C20.6513 13.7524 19.0248 14.1746 17.5549 14.9435C12.2657 17.6348 11.0014 22.9515 12.2282 27.9248C6.72075 30.1327 2.34495 36.003 6.35068 41.6195C8.65011 44.8331 13.0231 44.8198 16.4874 44.0726C22.3271 42.8176 28.0279 40.8272 33.8147 39.3368C39.7322 37.8217 45.6745 36.4373 51.6681 35.2802C54.7816 34.6923 57.9033 34.1029 61.0481 33.6361C63.6622 33.2271 66.4728 33.0519 68.3598 30.9437C71.2968 27.6724 70.0213 22.2174 67.6483 19.0178C66.3654 17.2724 64.6412 15.8998 62.6526 15.0408C60.664 14.1819 58.4827 13.8674 56.3325 14.1299Z" fill="#8BC9E0"/>

  </symbol>
  <symbol id="garland" viewBox="0 0 109 81">
    <path d="M12.9371 57.3309L1.17063 60.9311C-0.27842 61.2413 -1.66885 61.7802 -2.94844 62.5276C-3.24453 62.3239 -3.58267 62.1894 -3.93782 62.1341C-4.29296 62.0788 -4.656 62.1042 -5 62.2083C-4.85631 64.2359 -4.80043 66.2715 -4.78447 68.3071C-1.32795 74.3979 5.63297 78.6846 11.9792 80.8639C13.8073 81.4865 15.6193 79.8581 15.6513 78.07C15.7471 71.9951 16.1063 65.9283 16.2659 59.8534C16.2569 59.4519 16.1573 59.0577 15.9746 58.7001C15.7919 58.3425 15.5307 58.0308 15.2107 57.7883C14.8906 57.5458 14.5199 57.3786 14.1263 57.2994C13.7326 57.2202 13.3261 57.231 12.9371 57.3309Z" fill="#E9B84C"/>
    <path d="M40.7323 51.4173C42.4965 49.4216 40.4848 45.9571 37.8026 46.7873C36.8731 47.0436 36.0678 47.6277 35.5355 48.4317C34.8886 48.9784 34.2088 49.4849 33.5 49.9484C31.161 50.4274 28.7103 51.6009 26.5231 52.3432C23.6732 53.3171 20.8074 54.2751 17.9656 55.2809C17.338 55.5043 16.8075 55.9389 16.4649 56.5102C14.5969 56.2787 12.9604 58.6097 14.5889 60.1663C19.9533 65.2992 26.8264 68.8275 33.7474 71.4538C34.1813 71.8529 34.7548 72.0651 35.344 72.0446L36.2779 72.3798C38.2736 73.0743 39.934 71.2782 40.0937 69.4741C40.3293 66.7475 40.2973 64.0043 39.9979 61.2839C40.1815 59.6873 40.3172 58.1547 40.389 56.5821C40.389 55.7838 40.2214 54.4507 40.1735 53.2453C40.3515 52.9017 40.4932 52.5405 40.5966 52.1676C40.6667 51.9226 40.7121 51.6713 40.7323 51.4173Z" fill="#DA8588"/>
    <path d="M63.4681 47.7847C62.3186 44.6475 62.0312 41.6779 61.688 38.3571C61.6498 37.8661 61.4807 37.3943 61.1982 36.9908C60.9157 36.5874 60.5302 36.2671 60.0819 36.0633C59.6335 35.8595 59.1387 35.7796 58.6489 35.8321C58.1592 35.8845 57.6925 36.0673 57.2975 36.3615C56.9782 36.389 56.6684 36.4845 56.389 36.6414C56.1095 36.7984 55.8668 37.0132 55.677 37.2715C52.5804 41.2226 48.3004 44.0787 43.4635 45.4218C42.8616 45.6056 42.3477 46.0031 42.0186 46.5394C41.6753 46.4676 41.3321 46.3877 40.9808 46.3398C39.3204 46.0844 37.3966 48.2078 39.0969 49.5808C41.8749 51.824 45.5869 53.0054 48.8917 54.3066C52.7636 55.7826 56.7161 57.0379 60.7301 58.0664C62.5342 58.5534 63.8353 57.2123 64.0429 55.5519C64.3462 52.8138 64.458 50.419 63.4681 47.7847Z" fill="#8BC9E0"/>
    <path d="M86.6084 35.77C86.4248 34.1735 86.1534 32.5769 85.8102 30.9804C85.8122 27.1873 85.5669 23.3981 85.0758 19.637C85.0677 19.5031 85.0517 19.3698 85.0279 19.2378C85.0279 19.2378 85.0279 19.174 85.0279 19.142C84.2855 16.0926 78.7694 15.3023 78.3463 19.7168C78.2984 20.1478 78.2825 20.5949 78.2505 21.0339C74.4188 25.8235 68.5995 29.5036 63.9615 33.3912C63.7946 33.5271 63.6445 33.6825 63.5145 33.8542L62.9317 33.6386C60.96 32.8403 59.7387 35.7221 61.3831 36.8716C65.2055 39.6279 69.3944 41.8365 73.8281 43.4334C76.5422 44.3993 81.9785 47.0815 84.7325 45.2056C87.3349 43.4095 86.9038 38.4442 86.6084 35.77ZM70.1162 35.5465C70.2423 35.8563 70.403 36.1508 70.5951 36.4246L69.4696 36.0254L70.1162 35.5465Z" fill="white"/>
    <path d="M100.961 0H94.8385C93.3591 2.3615 92.0106 4.80257 90.7992 7.31216C90.1757 8.34818 89.471 9.33314 88.6918 10.2578C86.8957 12.3333 84.932 13.3231 83.6867 15.8457H83.0001C81.8826 15.8457 81.5633 17.6577 82.7287 17.8573L83.7505 18.017C84.05 18.4573 84.4993 18.7738 85.0148 18.9074C85.5303 19.041 86.0767 18.9828 86.5524 18.7434L87.1112 18.5199C89.9371 18.911 92.771 19.1904 95.6527 19.3181C97.9996 19.398 100.347 19.4459 102.693 19.4299C104.146 19.4299 106.445 19.7013 107.707 18.7354C110.101 16.9074 108.241 13.7702 107.252 11.7665C105.28 7.78314 103.077 3.91153 100.961 0Z" fill="#E9B84C"/>
    <path d="M91.5028 0C87.6072 8.50957 81.1013 15.2949 74.1963 21.681C66.5741 28.704 58.2862 34.968 49.4499 40.3845C32.6702 50.6742 14.2591 58.0279 -4.99219 62.1294C-4.99219 62.5365 -4.94429 62.9277 -4.92034 63.3587C15.6651 60.2153 35.3762 52.8413 52.9702 41.7017C61.9466 36.0267 70.34 29.4783 78.028 22.152C84.5259 15.9415 91.7103 8.74905 94.648 0H91.5028Z" fill="#27235C"/>

  </symbol>
</svg>